<?xml version="1.0" encoding="UTF-8"?>
<svg width="48px" height="48px" viewBox="0 0 48 48" version="1.1" xmlns="http://www.w3.org/2000/svg" xmlns:xlink="http://www.w3.org/1999/xlink">
    <title>health</title>
    <g id="health" stroke="none" stroke-width="1" fill="none" fill-rule="evenodd">
        <g id="hospital-board" transform="translate(9.000000, 9.000000)" fill="#000000" fill-rule="nonzero">
            <path d="M12,0 L11.71108,0.0137331561 C10.1897762,0.159102644 9,1.44060777 9,3 L9,9 L3,9 C1.34314575,9 0,10.3431458 0,12 L0,18 L0.0137331561,18.28892 C0.159102644,19.8102238 1.44060777,21 3,21 L9,21 L9,27 C9,28.6568542 10.3431458,30 12,30 L18,30 L18.28892,29.9862668 C19.8102238,29.8408974 21,28.5593922 21,27 L21,21 L27,21 C28.6568542,21 30,19.6568542 30,18 L30,12 L29.9862668,11.71108 C29.8408974,10.1897762 28.5593922,9 27,9 L21,9 L21,3 C21,1.34314575 19.6568542,0 18,0 L12,0 Z M12,3 L18,3 L18,10.5 C18,11.3284271 18.6715729,12 19.5,12 L27,12 L27,18 L19.5,18 C18.6715729,18 18,18.6715729 18,19.5 L18,27 L12,27 L12,19.5 C12,18.6715729 11.3284271,18 10.5,18 L3,18 L3,12 L10.5,12 C11.3284271,12 12,11.3284271 12,10.5 L12,3 Z" id="Path"></path>
        </g>
    </g>
</svg>