<?xml version="1.0" encoding="UTF-8"?>
<svg width="48px" height="48px" viewBox="0 0 48 48" version="1.1" xmlns="http://www.w3.org/2000/svg" xmlns:xlink="http://www.w3.org/1999/xlink">
    <title>security</title>
    <g id="security" stroke="none" stroke-width="1" fill="none" fill-rule="evenodd">
        <g id="shield-settings" transform="translate(11.000000, 8.000000)" fill="#000000" fill-rule="nonzero">
            <path d="M14.0809546,0.00249149588 L13.3394775,2.83135075e-05 C9.06545762,-0.0393636686 4.83178503,0.829213067 0.918533013,2.54829892 C-0.0601000068,3.00176678 -0.675241476,3.97351236 -0.666800296,5.03867117 L-0.666800296,15.216 C-0.678125617,22.2529855 3.6369399,28.5745162 10.1954674,31.1279117 L11.6188471,31.6801888 C12.7222433,32.1069883 13.9444233,32.1069883 15.0471716,31.6804398 L16.4704862,31.1281888 C23.0297268,28.5745162 27.3447923,22.2529855 27.3334879,15.2149209 L27.3334879,5.03333333 C27.3419081,3.97351236 26.7267667,3.00176678 25.7603601,2.55381739 C22.0657921,0.930660381 18.0982218,0.0657838629 14.0809546,0.00249149588 Z M13.3394775,1.33330502 C17.4247406,1.29565274 21.4714382,2.12586986 25.2118663,3.76903442 C25.6913998,3.99145681 26.004429,4.48595236 26.0001334,5.0279955 L26.0001334,15.216 C26.0105696,21.704657 22.0330109,27.5317435 15.9874674,29.8854217 L14.5655138,30.4371446 C13.7729134,30.743726 12.8937533,30.743726 12.100505,30.4368935 L10.6784862,29.8851446 C4.63365582,27.5317435 0.656097032,21.704657 0.666554228,15.2170791 L0.666554228,5.03333333 C0.66223771,4.48595236 0.975266883,3.99145681 1.46702679,3.76351594 C5.19522842,2.12586986 9.24192611,1.29565274 13.3394775,1.33330502 Z" id="Path"></path>
            <path d="M13.3333333,12.5 C12.0446689,12.5 11,13.5446689 11,14.8333333 C11,16.1219977 12.0446689,17.1666667 13.3333333,17.1666667 C14.6219977,17.1666667 15.6666667,16.1219977 15.6666667,14.8333333 C15.6666667,13.5446689 14.6219977,12.5 13.3333333,12.5 Z M13.3333333,13.8333333 C13.8856181,13.8333333 14.3333333,14.2810486 14.3333333,14.8333333 C14.3333333,15.3856181 13.8856181,15.8333333 13.3333333,15.8333333 C12.7810486,15.8333333 12.3333333,15.3856181 12.3333333,14.8333333 C12.3333333,14.2810486 12.7810486,13.8333333 13.3333333,13.8333333 Z" id="Oval"></path>
            <path d="M13.3333333,6.66590975 C12.3865069,6.66590975 11.5516408,7.28660968 11.2789203,8.1933091 L10.7888012,9.80616475 C10.7220798,10.0274214 10.4965564,10.1581696 10.2727805,10.1064538 L8.63699823,9.72783748 C7.71260535,9.51644523 6.7602661,9.93229154 6.28785689,10.7524649 C5.81544768,11.5726383 5.93359653,12.6050718 6.57908267,13.2973163 L7.72189309,14.5293705 C7.88054735,14.7007091 7.88054735,14.9659575 7.72150388,15.1377161 L6.57789309,16.3706295 C5.93359653,17.0615949 5.81544768,18.0940284 6.28785689,18.9142018 C6.7602661,19.7343751 7.71260535,20.1502214 8.63528339,19.9392237 L10.2729982,19.5601625 C10.4965564,19.508497 10.7220798,19.6392453 10.7883887,19.8591391 L11.2839088,21.4766137 C11.5556408,22.380057 12.3905069,23.0007569 13.3373333,23.0007569 C14.2841598,23.0007569 15.1190259,22.380057 15.3917463,21.4733576 L15.8818655,19.8605019 C15.9485869,19.6392453 16.1741103,19.508497 16.3978862,19.5602129 L18.0336684,19.9388292 C18.9592979,20.1471132 19.9085412,19.729952 20.3790479,18.9107742 C20.8495546,18.0915964 20.7315844,17.0614657 20.0880641,16.3698658 L18.9447736,15.1372961 C18.7861193,14.9659575 18.7861193,14.7007091 18.9451628,14.5289506 L20.0887736,13.2960372 C20.7330701,12.6050718 20.851219,11.5726383 20.3788098,10.7524649 C19.9064006,9.93229154 18.9540613,9.51644523 18.0313833,9.72744295 L16.3936684,10.1065041 C16.1701103,10.1581696 15.9445869,10.0274214 15.878278,9.80752754 L15.3871988,8.19149808 C15.1150259,7.28660968 14.2801598,6.66590975 13.3333333,6.66590975 Z M13.3333333,7.99924308 C13.6917033,7.99924308 14.0076968,8.2341755 14.1109203,8.57735756 L14.6021345,10.1938353 C14.8708104,11.0848247 15.7860079,11.6154146 16.6941138,11.4055462 L18.3303316,11.0268292 C18.6803306,10.9467939 19.043351,11.1053096 19.2234278,11.4179499 C19.4035046,11.7305902 19.3584677,12.1241417 19.112416,12.388017 L17.9672264,13.6226295 C17.3344501,14.3059943 17.3344501,15.3606724 17.9668372,16.0436172 L19.1112264,17.2773705 C19.3572382,17.5417639 19.402207,17.9344375 19.2228555,18.2466983 C19.0435039,18.5589591 18.6816636,18.717976 18.3303445,18.6389275 L16.6983316,18.2611708 C15.7900079,18.0512521 14.8748104,18.581842 14.605722,19.4741942 L14.1154679,21.0874981 C14.0116968,21.4324912 13.6957033,21.6674236 13.3373333,21.6674236 C12.9789634,21.6674236 12.6629699,21.4324912 12.5597463,21.0893091 L12.0640912,19.4713863 C11.7958562,18.581842 10.8806588,18.0512521 9.97255288,18.2611204 L8.33633511,18.6398375 C7.98633604,18.7198728 7.62331563,18.5613571 7.44323885,18.2487168 C7.26316208,17.9360764 7.30819901,17.542525 7.55425066,17.2786496 L8.69944025,16.0440372 C9.3322166,15.3606724 9.3322166,14.3059943 8.69982946,13.6230494 L7.55544025,12.3892961 C7.30819901,12.1241417 7.26316208,11.7305902 7.44323885,11.4179499 C7.62331563,11.1053096 7.98633604,10.9467939 8.33804994,11.0272237 L9.97233511,11.4054959 C10.8806588,11.6154146 11.7958562,11.0848247 12.0649447,10.1924725 L12.5551988,8.57916858 C12.6589699,8.2341755 12.9749634,7.99924308 13.3333333,7.99924308 Z" id="Path"></path>
        </g>
    </g>
</svg>