<?xml version="1.0" encoding="UTF-8"?>
<svg width="48px" height="48px" viewBox="0 0 48 48" version="1.1" xmlns="http://www.w3.org/2000/svg" xmlns:xlink="http://www.w3.org/1999/xlink">
    <title>Environment</title>
    <g id="Environment" stroke="none" stroke-width="1" fill="none" fill-rule="evenodd">
        <g id="ecology-globe-nature" transform="translate(8.000000, 8.000000)" fill="#000000" fill-rule="nonzero">
            <path d="M30,15.7733333 L0.666666667,15.7733333 C0.298476833,15.7733333 0,16.0718102 0,16.44 C0,24.9083662 6.86496717,31.7733333 15.3333333,31.7733333 C23.8016995,31.7733333 30.6666667,24.9083662 30.6666667,16.44 C30.6666667,16.0718102 30.3681898,15.7733333 30,15.7733333 Z M1.34933333,17.1066667 L29.316,17.1066667 L29.3132887,17.1956327 C28.9207423,24.5762658 22.8118121,30.44 15.3333333,30.44 L14.9542732,30.4349677 C7.77536022,30.2441414 1.94348367,24.6491492 1.3782433,17.5695907 L1.34933333,17.1066667 Z" id="Path"></path>
            <path d="M8.66666667,15.7733333 C8.99394652,15.7733333 9.26614449,16.0091669 9.32259244,16.3201658 L9.33333333,16.44 L9.33333333,17.7733333 C9.33333333,18.8129282 10.1265174,19.6672649 11.14072,19.7641779 L11.3333333,19.7733333 C13.1742825,19.7733333 14.6666667,21.2657175 14.6666667,23.1066667 C14.6666667,24.8739779 13.2912854,26.3200516 11.5525009,26.4329098 L11.3333333,26.44 L4.01866667,26.44 C3.65047683,26.44 3.352,26.1415232 3.352,25.7733333 C3.352,25.4460535 3.58783355,25.1738555 3.89883249,25.1174076 L4.01866667,25.1066667 L11.3333333,25.1066667 C12.4379028,25.1066667 13.3333333,24.2112362 13.3333333,23.1066667 C13.3333333,22.0670718 12.5401492,21.2127351 11.5259467,21.1158221 L11.3333333,21.1066667 C9.56602213,21.1066667 8.11994844,19.7312854 8.00709024,17.9925009 L8,17.7733333 L8,16.44 C8,16.0718102 8.29847683,15.7733333 8.66666667,15.7733333 Z" id="Path"></path>
            <path d="M28.4,22.44 C28.7681898,22.44 29.0666667,22.7384768 29.0666667,23.1066667 C29.0666667,23.4339465 28.8308331,23.7061445 28.5198342,23.7625924 L28.4,23.7733333 L23.3333333,23.7733333 C22.2937385,23.7733333 21.4394018,24.5665174 21.3424888,25.58072 L21.3333333,25.7733333 L21.3333333,30.1066667 C21.3333333,30.4748565 21.0348565,30.7733333 20.6666667,30.7733333 C20.3393868,30.7733333 20.0671888,30.5374998 20.0107409,30.2265008 L20,30.1066667 L20,25.7733333 C20,24.0060221 21.3753812,22.5599484 23.1141657,22.4470902 L23.3333333,22.44 L28.4,22.44 Z" id="Path"></path>
            <path d="M26,0.232 C25.5803236,0.232 25.1851392,0.42959221 24.9333333,0.765333333 L21.8321897,4.98379811 L21.7350711,5.13469778 C21.135411,6.14207867 21.4816947,7.16747343 22.1740834,7.63196544 L22.2773333,7.696 L20.4182884,10.2160924 C20.0404512,10.6276919 19.8943598,11.2779319 20.0760567,11.8767457 C20.2577537,12.4755595 20.7405468,12.9349783 21.3476335,13.0867593 L21.5093333,13.1066667 L30.4866667,13.1066667 L30.6483665,13.0867593 C31.2554532,12.9349783 31.7382463,12.4755595 31.9199433,11.8767457 L31.968442,11.6755631 C32.0657892,11.135739 31.9088399,10.5761871 31.5351689,10.1641485 L29.7186667,7.69733333 L29.7660485,7.67230956 C30.5357352,7.20894972 30.9223219,6.07447202 30.1773573,4.9990429 L27.0705581,0.770575153 C26.8148608,0.42959221 26.4196764,0.232 26,0.232 Z M22.9173573,5.75829043 L25.9986667,1.56533333 L29.0921086,5.77342485 C29.4520125,6.2934062 29.1515988,6.66183033 28.8365315,6.49057334 L28.7690281,6.44547355 C28.1597053,5.95948792 27.3542122,6.73502522 27.8167676,7.36232012 L30.5047676,11.0076534 C30.6529864,11.1761713 30.6896461,11.3393402 30.6440517,11.4896043 L30.6079833,11.5752275 C30.563558,11.6559777 30.495127,11.7210957 30.4122732,11.7614623 L30.3773333,11.7733333 L21.6173333,11.7733333 L21.6710331,11.7932407 C21.518693,11.7551533 21.3975427,11.6398684 21.3519483,11.4896043 C21.3154728,11.369393 21.3316399,11.2409227 21.3935759,11.1347872 L24.1817116,7.36257425 C24.6223476,6.76559755 23.9142346,6.0350229 23.3203512,6.38294103 L23.2277135,6.44701473 C22.8968751,6.71289397 22.5223266,6.32855582 22.9173573,5.75829043 Z" id="Path"></path>
            <path d="M25.996,11.7733333 C26.3232799,11.7733333 26.5954778,12.0091669 26.6519258,12.3201658 L26.6626667,12.44 L26.6626667,16.44 C26.6626667,16.8081898 26.3641898,17.1066667 25.996,17.1066667 C25.6687201,17.1066667 25.3965222,16.8708331 25.3400742,16.5598342 L25.3293333,16.44 L25.3293333,12.44 C25.3293333,12.0718102 25.6278102,11.7733333 25.996,11.7733333 Z" id="Path"></path>
            <path d="M13,6.12438108 C13.3316371,6.12438108 13.6492561,6.24785907 13.8925971,6.46719287 L14.0077987,6.58471987 L20.437132,14.0033865 C20.678267,14.2816269 20.6481871,14.7026637 20.3699468,14.9437987 C20.1226221,15.1581409 19.7624704,15.1581899 19.5161333,14.9601375 L19.4295346,14.8766135 L12.9999728,7.4577458 L9.25444913,11.7792989 C9.01330383,12.0575302 8.59226584,12.0875944 8.31403447,11.8464491 C8.0667177,11.6320978 8.01548363,11.2756089 8.17651562,11.0036247 L8.2468842,10.9060345 L11.992,6.58495226 C12.2452603,6.29244835 12.6130901,6.12438108 13,6.12438108 Z" id="Path"></path>
            <path d="M2.60679701,14.8823189 C2.36251104,15.1577969 1.94115911,15.183083 1.66568113,14.938797 C1.42081181,14.7216539 1.37362495,14.3646069 1.5377319,14.0944669 L1.60920299,13.9976811 L5.82854353,9.23958904 C6.08520663,8.95103954 6.45436735,8.78794806 6.84084649,8.79246021 C7.17183234,8.79648706 7.48740288,8.92331569 7.72819113,9.14513203 L7.84207855,9.26382708 L11.8607452,14.0091604 C12.0986913,14.2901326 12.0638118,14.7107991 11.7828396,14.9487452 C11.5330865,15.1602529 11.1729577,15.1561946 10.9288953,14.9553458 L10.8432548,14.8708396 L6.8247898,10.1257443 L2.60679701,14.8823189 Z" id="Path"></path>
        </g>
    </g>
</svg>