<?xml version="1.0" encoding="UTF-8"?>
<svg width="48px" height="48px" viewBox="0 0 48 48" version="1.1" xmlns="http://www.w3.org/2000/svg" xmlns:xlink="http://www.w3.org/1999/xlink">
    <title>utilities</title>
    <g id="utilities" stroke="none" stroke-width="1" fill="none" fill-rule="evenodd">
        <g id="flash-1" transform="translate(12.000000, 8.000000)" fill="#000000" fill-rule="nonzero">
            <path d="M0.624447712,18.941002 L0.566425904,19.0378778 C0.355540081,19.4665797 0.663412946,19.9949605 1.16683365,19.9949605 L10.9996323,19.9949605 L8.51464637,31.1815484 C8.35714241,31.8903162 9.28568779,32.3043769 9.70770008,31.7135597 L23.0385009,13.0504386 L23.0965227,12.9535627 C23.3074085,12.5248609 22.9995356,11.99648 22.4961149,11.99648 L12.6619832,11.99648 L15.1483022,0.809892202 C15.3058062,0.101124378 14.3772608,-0.312936359 13.9552485,0.277880837 L0.624447712,18.941002 Z M13.1352266,3.71671967 L11.1808065,12.5184273 L11.1655002,12.6311426 C11.1468014,13.0032217 11.4438219,13.3295601 11.8314743,13.3295601 L21.2003611,13.3295601 L10.5263889,28.2733878 L12.4821421,19.4730133 L12.4974484,19.360298 C12.5161472,18.9882189 12.2191267,18.6618805 11.8314743,18.6618805 L2.45992133,18.6618805 L13.1352266,3.71671967 Z" id="Path"></path>
        </g>
    </g>
</svg>