<?xml version="1.0" encoding="UTF-8"?>
<svg width="48px" height="48px" viewBox="0 0 48 48" version="1.1" xmlns="http://www.w3.org/2000/svg" xmlns:xlink="http://www.w3.org/1999/xlink">
    <title>transport</title>
    <g id="transport" stroke="none" stroke-width="1" fill="none" fill-rule="evenodd">
        <g id="road-traffic-lights" transform="translate(9.000000, 8.000000)" fill="#000000" fill-rule="nonzero">
            <g id="Group" transform="translate(0.942769, 0.000000)">
                <path d="M18.3905644,0 L9.05723107,0 C7.21628191,0 5.72389774,1.49238417 5.72389774,3.33333333 L5.72389774,28.6666667 C5.72389774,30.5076158 7.21628191,32 9.05723107,32 L18.3905644,32 C20.2315136,32 21.7238977,30.5076158 21.7238977,28.6666667 L21.7238977,3.33333333 C21.7238977,1.49238417 20.2315136,0 18.3905644,0 Z M9.05723107,1.33333333 L18.3905644,1.33333333 C19.4951339,1.33333333 20.3905644,2.22876383 20.3905644,3.33333333 L20.3905644,28.6666667 C20.3905644,29.7712362 19.4951339,30.6666667 18.3905644,30.6666667 L9.05723107,30.6666667 C7.95266157,30.6666667 7.05723107,29.7712362 7.05723107,28.6666667 L7.05723107,3.33333333 C7.05723107,2.22876383 7.95266157,1.33333333 9.05723107,1.33333333 Z" id="Rectangle"></path>
                <path d="M13.7238977,12 C11.5147587,12 9.72389774,13.790861 9.72389774,16 C9.72389774,18.209139 11.5147587,20 13.7238977,20 C15.9330367,20 17.7238977,18.209139 17.7238977,16 C17.7238977,13.790861 15.9330367,12 13.7238977,12 Z M13.7238977,13.3333333 C15.1966571,13.3333333 16.3905644,14.5272407 16.3905644,16 C16.3905644,17.4727593 15.1966571,18.6666667 13.7238977,18.6666667 C12.2511384,18.6666667 11.0572311,17.4727593 11.0572311,16 C11.0572311,14.5272407 12.2511384,13.3333333 13.7238977,13.3333333 Z" id="Oval"></path>
                <path d="M13.7238977,21.3333333 C11.5147587,21.3333333 9.72389774,23.1241943 9.72389774,25.3333333 C9.72389774,27.5424723 11.5147587,29.3333333 13.7238977,29.3333333 C15.9330367,29.3333333 17.7238977,27.5424723 17.7238977,25.3333333 C17.7238977,23.1241943 15.9330367,21.3333333 13.7238977,21.3333333 Z M13.7238977,22.6666667 C15.1966571,22.6666667 16.3905644,23.860574 16.3905644,25.3333333 C16.3905644,26.8060927 15.1966571,28 13.7238977,28 C12.2511384,28 11.0572311,26.8060927 11.0572311,25.3333333 C11.0572311,23.860574 12.2511384,22.6666667 13.7238977,22.6666667 Z" id="Oval"></path>
                <path d="M13.7238977,2.66666667 C11.5147587,2.66666667 9.72389774,4.45752767 9.72389774,6.66666667 C9.72389774,8.87580567 11.5147587,10.6666667 13.7238977,10.6666667 C15.9330367,10.6666667 17.7238977,8.87580567 17.7238977,6.66666667 C17.7238977,4.45752767 15.9330367,2.66666667 13.7238977,2.66666667 Z M13.7238977,4 C15.1966571,4 16.3905644,5.19390733 16.3905644,6.66666667 C16.3905644,8.139426 15.1966571,9.33333333 13.7238977,9.33333333 C12.2511384,9.33333333 11.0572311,8.139426 11.0572311,6.66666667 C11.0572311,5.19390733 12.2511384,4 13.7238977,4 Z" id="Oval"></path>
                <path d="M6.39056441,2.66666667 C6.75875424,2.66666667 7.05723107,2.9651435 7.05723107,3.33333333 C7.05723107,3.66061319 6.82139753,3.93281116 6.51039858,3.98925911 L6.39056441,4 L1.33344721,4.00007442 L6.86196893,9.52859548 C7.12231846,9.78894501 7.12231846,10.211055 6.86196893,10.4714045 C6.63054713,10.7028263 6.27131459,10.7285399 6.0114904,10.5485451 L5.91915989,10.4714045 L0.391756134,4.94400002 C0.009763075,4.56297144 -0.104947329,3.98928551 0.101156966,3.49066492 C0.286665341,3.04187128 0.699163378,2.73346761 1.17317566,2.67627481 L1.33323107,2.66666667 L6.39056441,2.66666667 Z" id="Path"></path>
                <path d="M6.39056441,12 C6.75875424,12 7.05723107,12.2984768 7.05723107,12.6666667 C7.05723107,12.9939465 6.82139753,13.2661445 6.51039858,13.3225924 L6.39056441,13.3333333 L1.33344721,13.3334078 L6.86196893,18.8619288 C7.12231846,19.1222783 7.12231846,19.5443883 6.86196893,19.8047379 C6.63054713,20.0361597 6.27131459,20.0618732 6.0114904,19.8818785 L5.91915989,19.8047379 L0.391756134,14.2773333 C0.009763075,13.8963048 -0.104947329,13.3226188 0.101156966,12.8239983 C0.286665341,12.3752046 0.699163378,12.0668009 1.17317566,12.0096081 L1.33323107,12 L6.39056441,12 Z" id="Path"></path>
                <path d="M6.39056441,21.3333333 C6.75875424,21.3333333 7.05723107,21.6318102 7.05723107,22 C7.05723107,22.3272799 6.82139753,22.5994778 6.51039858,22.6559258 L6.39056441,22.6666667 L1.33344721,22.6667411 L6.86196893,28.1952621 C7.12231846,28.4556117 7.12231846,28.8777217 6.86196893,29.1380712 C6.63054713,29.369493 6.27131459,29.3952065 6.0114904,29.2152118 L5.91915989,29.1380712 L0.391756134,23.6106667 C0.009763075,23.2296381 -0.104947329,22.6559522 0.101156966,22.1573316 C0.286665341,21.708538 0.699163378,21.4001343 1.17317566,21.3429415 L1.33323107,21.3333333 L6.39056441,21.3333333 Z" id="Path"></path>
                <path d="M26.1145644,2.66666667 C26.6541635,2.66666667 27.1405181,2.99200533 27.3466385,3.49066492 C27.5298423,3.93388322 27.4595629,4.43641241 27.1738163,4.80980404 L27.0566356,4.94340452 L21.5286356,10.4714045 C21.2682861,10.731754 20.8461761,10.731754 20.5858266,10.4714045 C20.3544048,10.2399827 20.3286912,9.88075018 20.508686,9.620926 L20.5858266,9.52859548 L26.1118977,4 L21.0572311,4 C20.7299512,4 20.4577532,3.76416645 20.4013053,3.45316751 L20.3905644,3.33333333 C20.3905644,3.00605348 20.626398,2.73385551 20.9373969,2.67740756 L21.0572311,2.66666667 L26.1145644,2.66666667 Z" id="Path"></path>
                <path d="M26.1145644,12 C26.6541635,12 27.1405181,12.3253387 27.3466385,12.8239983 C27.5298423,13.2672166 27.4595629,13.7697457 27.1738163,14.1431374 L27.0566356,14.2767379 L21.5286356,19.8047379 C21.2682861,20.0650874 20.8461761,20.0650874 20.5858266,19.8047379 C20.3544048,19.5733161 20.3286912,19.2140835 20.508686,18.9542593 L20.5858266,18.8619288 L26.1118977,13.3333333 L21.0572311,13.3333333 C20.7299512,13.3333333 20.4577532,13.0974998 20.4013053,12.7865008 L20.3905644,12.6666667 C20.3905644,12.3393868 20.626398,12.0671888 20.9373969,12.0107409 L21.0572311,12 L26.1145644,12 Z" id="Path"></path>
                <path d="M26.1145644,21.3333333 C26.6541635,21.3333333 27.1405181,21.658672 27.3466385,22.1573316 C27.5298423,22.6005499 27.4595629,23.1030791 27.1738163,23.4764707 L27.0566356,23.6100712 L21.5286356,29.1380712 C21.2682861,29.3984207 20.8461761,29.3984207 20.5858266,29.1380712 C20.3544048,28.9066494 20.3286912,28.5474169 20.508686,28.2875927 L20.5858266,28.1952621 L26.1118977,22.6666667 L21.0572311,22.6666667 C20.7299512,22.6666667 20.4577532,22.4308331 20.4013053,22.1198342 L20.3905644,22 C20.3905644,21.6727201 20.626398,21.4005222 20.9373969,21.3440742 L21.0572311,21.3333333 L26.1145644,21.3333333 Z" id="Path"></path>
            </g>
        </g>
    </g>
</svg>