<?xml version="1.0" encoding="UTF-8"?>
<svg width="48px" height="48px" viewBox="0 0 48 48" version="1.1" xmlns="http://www.w3.org/2000/svg" xmlns:xlink="http://www.w3.org/1999/xlink">
    <title>essential</title>
    <g id="essential" stroke="none" stroke-width="1" fill="none" fill-rule="evenodd">
        <g id="bread-baguette" transform="translate(8.000000, 8.000000)" fill="#000000" fill-rule="nonzero">
            <path d="M30.0003702,24 L2,24 C1.25428115,24.000414 0.57099978,24.4152643 0.226787059,25.0763712 C-0.117425662,25.7374782 -0.0654551473,26.5351456 0.361629827,27.1460001 L1.96707436,29.4408258 C3.09004021,31.0449058 4.92481675,32.000087 6.88269629,32 L25.1173333,32 C27.0766363,32.002046 28.9140783,31.0466433 30.0381373,29.4409996 L31.6388553,27.1453053 C32.0654551,26.5351456 32.1174257,25.7374782 31.7732129,25.0763712 C31.4290002,24.4152643 30.7457189,24.000414 30.0003702,24 Z M2.00037017,25.3333332 L30,25.3333332 C30.2480794,25.3334712 30.4758398,25.4717546 30.5905774,25.6921236 C30.705315,25.9124926 30.6879915,26.1783817 30.5456298,26.3819999 L28.9451447,28.6773614 C28.0715946,29.9251677 26.642473,30.6682586 25.1180294,30.6666696 L6.88266667,30.6666696 C5.35984184,30.6667343 3.93279342,29.9238156 3.05947037,28.6763333 L1.45425898,26.3818409 C1.31200851,26.1783817 1.29468501,25.9124926 1.40942258,25.6921236 C1.52416016,25.4717546 1.75192061,25.3334712 2.00037017,25.3333332 Z" id="Path"></path>
            <path d="M24.6869224,16.0004084 L19.9499768,16.0005455 C16.6761509,16.087322 14.0471147,18.7152257 13.9681942,21.9839084 C14.0116525,23.8151469 15.4470331,25.2563756 17.2210475,25.3310189 L27.2066667,25.3333333 C28.9922212,25.3732171 30.4963437,24.0070794 30.6538719,22.2391115 L30.6664723,21.9839048 C30.5871355,18.698719 27.9384882,16.078479 24.6869224,16.0004084 Z M19.9677703,17.3336435 L24.6694659,17.3342899 C27.1294604,17.407505 29.1339729,19.3207048 29.3207463,21.7617448 L29.332,21.9973333 L29.3335277,21.9839048 C29.3060083,23.1234273 28.3610679,24.0255184 27.2214951,24.0001649 L17.4293333,24 C16.2742173,24.0260906 15.3286557,23.1238371 15.3011392,21.9839121 C15.3628991,19.4581532 17.420598,17.4013407 19.9677703,17.3336435 Z" id="Path"></path>
            <path d="M18.2923441,16.3124714 C18.5735733,16.145073 18.9280962,16.2084983 19.1356724,16.4468652 L19.2061953,16.5443441 L19.3761904,16.8392866 C20.0407208,18.3392015 20.155049,20.0254119 19.6990638,21.6012997 C19.5967255,21.9549813 19.2270485,22.1587353 18.8733669,22.0563971 C18.5196854,21.9540589 18.3159313,21.5843818 18.4182696,21.2307003 C18.7563198,20.0623964 18.7067953,18.8191194 18.3104632,17.7402913 L18.1938047,17.4503226 L18.0604714,17.2263226 C17.8721483,16.9099397 17.9759612,16.5007946 18.2923441,16.3124714 Z" id="Path"></path>
            <path d="M21.1703836,16.0403031 C21.4778778,15.9282344 21.8143754,16.0566035 21.9739045,16.3294719 L22.0250302,16.4383836 L22.1693778,16.8389575 C22.834876,18.3388688 22.9492416,20.0256306 22.4922969,21.6016456 C22.3897677,21.9552718 22.0199806,22.1588262 21.6663544,22.0562969 C21.3127282,21.9537677 21.1091738,21.5839806 21.2117031,21.2303544 C21.5503572,20.0623267 21.5008822,18.8190613 21.0627605,17.6534656 L20.9336365,17.3376164 L20.7723031,16.8949498 C20.6462259,16.5490187 20.8244525,16.1663804 21.1703836,16.0403031 Z" id="Path"></path>
            <path d="M23.8491067,16.0668121 C24.1435871,15.9240068 24.4914096,16.0174347 24.6779017,16.2726354 L24.7398546,16.3757733 L24.9641904,16.8392866 C25.6287208,18.3392015 25.743049,20.0254119 25.2870638,21.6012997 C25.1847255,21.9549813 24.8150485,22.1587353 24.4613669,22.0563971 C24.1076854,21.9540589 23.9039313,21.5843818 24.0062696,21.2307003 C24.3443198,20.0623964 24.2947953,18.8191194 23.877672,17.7017047 L23.7548121,17.4002267 L23.5401454,16.95756 C23.3794895,16.6262695 23.5178161,16.227468 23.8491067,16.0668121 Z" id="Path"></path>
            <path d="M23.0659267,1.40397563 C24.9810426,-0.367835676 27.9537935,-0.310251975 29.7988568,1.53439592 C31.5780249,3.31316352 31.695733,6.14088213 30.0984006,8.07394347 L29.9138588,8.2849476 L24.6058588,13.6182809 C24.3461298,13.8792495 23.924021,13.8802544 23.6630524,13.6205254 C23.4310803,13.3896552 23.4045116,13.0304849 23.5838873,12.770233 L23.6608079,12.6777191 L28.9518737,7.36203689 C30.2370116,5.97232907 30.194749,3.8156049 28.8561539,2.47731109 C27.5757585,1.19720396 25.5468206,1.10332391 24.1732044,2.20682235 L23.9900868,2.36472222 L3.88475348,22.4713889 C3.62441259,22.7317471 3.2023026,22.731761 2.94194444,22.4714202 C2.71051497,22.240006 2.68478952,21.8807743 2.86477564,21.6209442 L2.94191318,21.5286111 L23.0659267,1.40397563 Z" id="Path"></path>
            <path d="M14.4447084,10.0657174 C14.7766035,9.90631419 15.1748795,10.0461466 15.3342826,10.3780417 C15.5218731,10.7686259 15.8074751,11.118795 16.2456007,11.5301916 L16.8792022,12.1013675 C17.141636,12.3405203 17.3192271,12.5233422 17.4647652,12.7190009 C18.0197682,13.465137 17.9213962,14.2597397 17.1296083,14.9952196 C15.8082442,16.2220707 13.4497661,15.3467017 11.9044878,13.3737403 C11.677458,13.0838761 11.7283955,12.6648508 12.0182597,12.4378211 C12.3081239,12.2107914 12.7271492,12.2617288 12.9541789,12.551593 C14.0844413,13.9946755 15.6298546,14.5682686 16.2222837,14.018214 C16.5284337,13.7338359 16.5326364,13.6998887 16.3949417,13.5147744 C16.345379,13.4481432 16.279817,13.3744067 16.1911967,13.28589 L15.9107395,13.0239843 L15.4744119,12.6320784 L15.3329074,12.5021838 C14.785378,11.9880578 14.4035723,11.5199359 14.132384,10.9552916 C13.9729809,10.6233965 14.1128132,10.2251205 14.4447084,10.0657174 Z" id="Path"></path>
            <path d="M21.078995,3.44452348 C21.4100768,3.28343768 21.8090574,3.42124661 21.9701432,3.75232835 C22.1584265,4.13930946 22.4434102,4.48688257 22.8792943,4.89515981 L23.5142214,5.46614156 C23.7771546,5.70516885 23.9551084,5.88789728 24.1009827,6.08343796 C24.6572835,6.82914479 24.5599018,7.624038 23.7683007,8.35919566 C22.4456661,9.58735642 20.086967,8.71209358 18.5416633,6.73753884 C18.3147449,6.44758751 18.3658432,6.02858177 18.6557945,5.80166333 C18.9457458,5.5747449 19.3647516,5.62584316 19.59167,5.91579449 C20.7220364,7.36015158 22.2672191,7.93353588 22.8609996,7.3821683 L23.0215973,7.22588718 C23.1609854,7.07653253 23.1395878,7.02455936 23.03227,6.88070263 C22.9991176,6.83626271 22.9588425,6.7886682 22.909349,6.73564577 L22.7311173,6.55802137 L21.9678055,5.86828157 C21.4235294,5.35847741 21.0430579,4.89444505 20.7711901,4.33567165 C20.6101043,4.00458991 20.7479133,3.60560929 21.078995,3.44452348 Z" id="Path"></path>
            <path d="M8.15703557,16.3568683 C8.48866326,16.1969094 8.88717288,16.3360746 9.04713172,16.6677022 C9.23480589,17.0567895 9.52036428,17.405828 9.95851404,17.8162627 L10.5910456,18.3852348 L10.8682046,18.6485397 C10.9898719,18.77113 11.0887026,18.8834274 11.1760893,19.0002828 C11.7345896,19.7471214 11.6379104,20.5433569 10.844275,21.2805529 C9.52327721,22.5070639 7.16842303,21.6328521 5.61842566,19.6598444 C5.39097028,19.3703141 5.44129195,18.9512144 5.73082227,18.723759 C6.02035258,18.4963036 6.43945229,18.5466253 6.66690768,18.8361556 C7.8015309,20.2804293 9.34479493,20.8533478 9.93695036,20.3035474 C10.243591,20.0187135 10.2476666,19.9851477 10.1083059,19.7987916 C10.0585161,19.7322115 9.99281815,19.658594 9.90414368,19.570271 L9.04698345,18.7893453 C8.49945338,18.2764491 8.11769385,17.8098239 7.84620162,17.2469644 C7.68624278,16.9153367 7.82540788,16.5168271 8.15703557,16.3568683 Z" id="Path"></path>
        </g>
    </g>
</svg>